<?xml version="1.0" encoding="UTF-8"?>
<svg xmlns="http://www.w3.org/2000/svg" viewBox="0 0 600 600" width="800" height="800">
<rect width="600" height="600" fill="white"/>
<path d="M 61.31058,185.63481 C 68.730918,114.95733 85.156659,73.232083 192.4471,26.397611 223.34523,11.882758 324.95174,-25.574297 418.10409,58.755973 441.57512,79.278062 532.66366,170.71026 536.46758,290.37372 532.26194,354.296 499.77151,402.98269 466.64163,439.3925 434.13523,473.93529 398.10427,497.65485 329.54436,493.89079 224.00571,495.8188 157.59148,444.78867 121.87351,400.66484 81.030966,350.21038 59.778197,279.29956 61.31058,185.63481 Z" fill="none" stroke="gray" stroke-width="2"/>
<path d="m 119.21502,267.38225 c 16.48411,9.7792 46.95294,52.63032 42.57679,-8.51536 l -7.66382,-58.75597 c -8.76539,-42.54818 23.24404,-57.14486 42.57679,-71.52901 42.87352,-41.60892 51.91326,-44.452057 85.15358,-44.279862 22.97956,1.907225 41.14528,-38.461744 -14.47611,-34.91297 C 228.69333,52.417329 190.56,61.557029 154.12799,89.411263 123.18075,110.88187 100.9623,139.91742 103.88737,190.74403 c 1.80402,26.20711 2.55417,52.625 15.32765,76.63822 z" fill="rgb(217, 166, 136)" fill-opacity="0.7" stroke="black" stroke-width="0.5"/>
<path d="m 212.88396,257.16382 c -24.60162,26.63381 -51.01764,63.06544 -53.64676,-28.95222 -24.78234,-65.19966 19.07023,-83.92609 66.49725,-122.93053 8.23144,-6.769616 10.36059,-14.789439 28.02323,-15.869807 160.65321,-3.347648 97.05534,129.865437 36.61604,81.747437 17.01631,-63.35583 -92.15003,-67.34559 -65.56826,16.17918 27.24149,23.27531 -7.89659,46.55063 -11.9215,69.82594 z" fill="rgb(235, 229, 226)" fill-opacity="0.7" stroke="black" stroke-width="0.5"/>
<path d="m 357.64505,126.87884 c -2.63312,37.77604 -13.67344,70.42833 -68.9744,49.38908 l -22.13993,26.39761 c 22.3987,37.64579 46.0953,70.9652 88.55972,41.72525 66.61356,14.25775 73.0054,-28.16376 63.01366,-86.00511 -9.88639,-44.07635 -26.06143,-44.74556 -60.45905,-31.50683 z" fill="rgb(219, 169, 141)" fill-opacity="0.7" stroke="black" stroke-width="0.5"/>
<path d="m 308.25597,53.646758 c -8.585,44.917196 24.36564,48.298752 42.57679,66.419792 19.65847,2.18823 54.1573,0.45295 18.73379,-41.725253 C 355.02067,66.575198 344.50347,52.391886 308.25597,53.646758 Z" fill="rgb(176, 78, 26)" fill-opacity="0.7" stroke="black" stroke-width="0.5"/>
<path d="m 395.11263,275.89761 c 45.08523,19.8425 53.32248,1.91516 53.64676,-33.2099 2.16665,-17.6734 5.72896,-36.24401 -22.99147,-34.06143 -7.44525,21.57224 -30.26074,46.55063 -30.65529,67.27133 z" fill="rgb(197, 119, 74)" fill-opacity="0.7" stroke="black" stroke-width="0.5"/>
<path d="m 428.32253,352.53584 c 11.9215,49.60087 34.91297,27.95497 35.7645,2.5546 -3.13366,-40.37837 -48.46299,-63.96476 -35.7645,-2.5546 z" fill="rgb(196, 117, 71)" fill-opacity="0.7" stroke="black" stroke-width="0.5"/>
<path d="m 331.24744,395.96416 c -5.1678,-51.00164 10.0825,-34.62355 27.24915,-11.9215 8.14333,15.84243 10.87374,28.4371 7.66382,37.46758 -4.01103,19.31653 -39.43699,29.05005 -34.91297,-25.54608 z" fill="rgb(218, 228, 233)" fill-opacity="0.7" stroke="black" stroke-width="0.5"/>
<path d="m 248.64846,380.63652 c -5.20613,-48.98803 19.15977,-40.94428 45.1314,-29.80376 48.62276,-15.14606 31.45408,48.65761 39.17065,82.59898 0,0 -33.70873,46.12271 -84.30205,-52.79522 z" fill="rgb(200, 126, 83)" fill-opacity="0.7" stroke="black" stroke-width="0.5"/>
<path d="m 198.40785,340.61433 c -7.58479,96.10986 84.78528,94.86452 51.09215,46.83448 -18.4041,-30.0383 25.42096,-69.70768 -7.66382,-85.15359 -34.60677,-30.41434 -93.34834,-4.95418 -43.42833,38.31911 z" fill="rgb(196, 115, 69)" fill-opacity="0.7" stroke="black" stroke-width="0.5"/>
<path d="m 239.28157,276.74915 55.34983,57.90443 c 52.36999,-5.44128 74.94142,50.8371 74.08362,83.45051 0,0 94.2809,16.63854 50.24062,-65.56826 -6.60195,-94.66844 -12.61005,-48.34112 -80.04438,-71.529 -38.96638,-15.21812 -51.20685,-35.72355 -59.60751,-42.5768 -15.95896,-13.01932 -23.843,-4.25768 -23.843,-4.25768 z" fill="rgb(65, 137, 174)" fill-opacity="0.7" stroke="black" stroke-width="0.5"/>
<path d="m 119.21502,267.38225 c 16.48411,9.7792 46.95294,52.63032 42.57679,-8.51536 l -7.66382,-58.75597 c -8.76539,-42.54818 23.24404,-57.14486 42.57679,-71.52901 42.87352,-41.60892 51.91326,-44.452057 85.15358,-44.279862 22.97956,1.907225 41.14528,-38.461744 -14.47611,-34.91297 C 228.69333,52.417329 190.56,61.557029 154.12799,89.411263 123.18075,110.88187 100.9623,139.91742 103.88737,190.74403 c 1.80402,26.20711 2.55417,52.625 15.32765,76.6382 z" fill="rgb(207, 224, 232)" fill-opacity="0.7" stroke="black" stroke-width="0.5"/>
<path d="m 212.88396,257.16382 c -24.60162,26.63381 -51.01764,63.06544 -53.64676,-28.95222 -24.78234,-65.19966 19.07023,-83.92609 66.49725,-122.93053 8.23144,-6.769616 10.36059,-14.789439 28.02323,-15.869807 160.65321,-3.347648 97.05534,129.865437 36.61604,81.747437 17.01631,-63.35583 -92.15003,-67.34559 -65.56826,16.17918 27.24149,23.27531 -7.89659,46.55063 -11.9215,69.82594 z" fill="rgb(201, 127, 85)" fill-opacity="0.7" stroke="black" stroke-width="0.5"/>
<path d="m 357.64505,126.87884 c -2.63312,37.77604 -13.67344,70.42833 -68.9744,49.38908 l -22.13993,26.39761 c 22.3987,37.64579 46.0953,70.9652 88.55972,41.72525 66.61356,14.25775 73.0054,-28.16376 63.01366,-86.00511 -9.88639,-44.07635 -26.06143,-44.74556 -60.45905,-31.50683 z" fill="rgb(37, 116, 160)" fill-opacity="0.7" stroke="black" stroke-width="0.5"/>
<path d="m 308.25597,53.646758 c -8.585,44.917196 24.36564,48.298752 42.57679,66.419792 19.65847,2.18823 54.1573,0.45295 18.73379,-41.725253 C 355.02067,66.575198 344.50347,52.391886 308.25597,53.646758 Z" fill="rgb(183, 89, 37)" fill-opacity="0.7" stroke="black" stroke-width="0.5"/>
<path d="m 395.11263,275.89761 c 45.08523,19.8425 53.32248,1.91516 53.64676,-33.2099 2.16665,-17.6734 5.72896,-36.24401 -22.99147,-34.06143 -7.44525,21.57224 -30.26074,46.55063 -30.65529,67.27133 z" fill="rgb(172, 73, 22)" fill-opacity="0.7" stroke="black" stroke-width="0.5"/>
<path d="m 428.32253,352.53584 c 11.9215,49.60087 34.91297,27.95497 35.7645,2.5546 -3.13366,-40.37837 -48.46299,-63.96476 -35.7645,-2.5546 z" fill="rgb(139, 39, 5)" fill-opacity="0.7" stroke="black" stroke-width="0.5"/>
<path d="m 331.24744,395.96416 c -5.1678,-51.00164 10.0825,-34.62355 27.24915,-11.9215 8.14333,15.84243 10.87374,28.4371 7.66382,37.46758 -4.01103,19.31653 -39.43699,29.05005 -34.91297,-25.54608 z" fill="rgb(233, 230, 227)" fill-opacity="0.7" stroke="black" stroke-width="0.5"/>
<path d="m 248.64846,380.63652 c -5.20613,-48.98803 19.15977,-40.94428 45.1314,-29.80376 48.62276,-15.14606 31.45408,48.65761 39.17065,82.59898 0,0 -33.70873,46.12271 -84.30205,-52.79522 z" fill="rgb(177, 80, 28)" fill-opacity="0.7" stroke="black" stroke-width="0.5"/>
<path d="m 198.40785,340.61433 c -7.58479,96.10986 84.78528,94.86452 51.09215,46.83448 -18.4041,-30.0383 25.42096,-69.70768 -7.66382,-85.15359 -34.60677,-30.41434 -93.34834,-4.95418 -43.42833,38.31911 z" fill="rgb(191, 105, 55)" fill-opacity="0.7" stroke="black" stroke-width="0.5"/>
<path d="m 239.28157,276.74915 55.34983,57.90443 c 52.36999,-5.44128 74.94142,50.8371 74.08362,83.45051 0,0 94.2809,16.63854 50.24062,-65.56826 -6.60195,-94.66844 -12.61005,-48.34112 -80.04438,-71.529 -38.96638,-15.21812 -51.20685,-35.72355 -59.60751,-42.5768 -15.95896,-13.01932 -23.843,-4.25768 -23.843,-4.25768 z" fill="rgb(176, 206, 222)" fill-opacity="0.7" stroke="black" stroke-width="0.5"/>
</svg>